<svg xmlns="http://www.w3.org/2000/svg" version="1.1" xmlns:xlink="http://www.w3.org/1999/xlink" xmlns:svgjs="http://svgjs.dev/svgjs" width="1000" height="1000" viewBox="0 0 1000 1000"><rect width="1000" height="1000" fill="#ffa458"></rect><g transform="matrix(0.7,0,0,0.7,150,281.25)"><svg viewBox="0 0 576 360" data-background-color="#ffa458" preserveAspectRatio="xMidYMid meet" height="625" width="1000" xmlns="http://www.w3.org/2000/svg" xmlns:xlink="http://www.w3.org/1999/xlink"><g id="tight-bounds" transform="matrix(1,0,0,1,0,0)"><svg viewBox="0 0 576 360" height="360" width="576"><g><svg></svg></g><g><svg viewBox="0 0 576 360" height="360" width="576"><g><path xmlns="http://www.w3.org/2000/svg" d="M132.115 90l155.885-90 155.885 90v180l-155.885 90-155.885-90zM143.624 263.355l144.376 83.356 144.376-83.356v-166.71l-144.376-83.356-144.376 83.356z" fill="#ea3c12" fill-rule="nonzero" stroke="none" stroke-width="1" stroke-linecap="butt" stroke-linejoin="miter" stroke-miterlimit="10" stroke-dasharray="" stroke-dashoffset="0" font-family="none" font-weight="none" font-size="none" text-anchor="none" style="mix-blend-mode: normal" data-fill-palette-color="tertiary"></path></g><g transform="matrix(1,0,0,1,220.05419681697612,99)"><svg viewBox="0 0 135.89160636604777 162" height="162" width="135.89160636604777"><g><svg viewBox="0 0 135.89160636604777 162" height="162" width="135.89160636604777"><g><svg viewBox="0 0 135.89160636604777 162" height="162" width="135.89160636604777"><g><svg viewBox="0 0 135.89160636604777 162" height="162" width="135.89160636604777"><g><svg viewBox="0 0 135.89160636604777 162" height="162" width="135.89160636604777"><path d="M135.573 34.746C134.935 17.93 133.114 13.256 133.114 13.256 127.524-4.064 120.548-0.331 114.28 2.157 103.215 2.258 92.195 5.958 81.156 7.942 57.984 8.245 34.615 3.267 11.559 15.543 9.393 19.309-2.247 16.282 0.385 36.898 1.075 45.474 3.592 54.992 3.516 62.861 3.861 64.24 4.34 61.079 4.544 63.063 5.26 68.411 6.429 65.888 7.387 69.05 6.052 77.491 7.01 84.52 7.924 91.885 6.314 93.802 4.25 92.894 3.324 99.25 3.228 103.858 2.711 102.983 2.142 102.782 1.727 102.647 0.89 103.152 1.03 104.598 1.51 109.541-0.548 112.4 0.743 117.243-0.145 122.489 1.356 127.03 1.152 132.713 1.126 133.857 1.267 134.832 1.49 135.101 2.481 136.547 1.037 139.372 1.19 142.433 11.348 163.351 22.368 148.89 32.775 158.508 35.478 151.782 33.446 160.896 34.526 159.484 35.369 157.836 35.982 164.663 36.934 160.795 37.081 159.685 36.857 157.062 37.381 157.567 37.656 157.836 37.899 157.768 37.937 156.221 37.995 153.901 37.49 155.347 37.356 154.136 38.806 148.015 38.448 162.578 39.809 161.972 39.745 160.19 39.349 157.634 40.16 157.97 40.965 155.414 40.991 153.295 41.706 159.046 41.732 160.291 41.86 161.165 42.064 161.771 44.3 155.515 46.523 163.99 48.868 161.165 50.305 158.071 51.685 162.847 53.142 161.67 53.653 160.728 54.17 159.046 54.662 161.871 60.687 162.477 67.107 159.954 72.819 161.972 88.081 158.206 104.391 163.519 120.484 158.542 124.278 156.625 128.22 153.901 131.919 151.715 131.919 151.715 134.915 145.728 134.915 118.824S135.554 95.282 135.65 73.859C135.746 52.436 136.193 51.561 135.554 34.746Z" opacity="1" fill="#ea3c12" data-fill-palette-color="tertiary"></path><g transform="matrix(1,0,0,1,32.48640000000001,17.19)"><svg width="70.91880636604775" viewBox="2 -36.040000915527344 20.459999084472656 36.81999969482422" height="127.62" data-palette-color="#ffa458"><path d="M22.46 0.34L22.46 0.34 18.16 0.34Q16.55-1.17 14.75-3.13 12.94-5.08 11.79-6.45 10.64-7.81 8.62-10.33 6.59-12.84 5.76-13.87L5.76-13.87 6.4-0.68Q5.96 0.78 4.69 0.78L4.69 0.78Q3.81 0.78 3 0.07 2.2-0.63 2-1.66L2-1.66Q2.15-5.57 2.25-17.87 2.34-30.18 2.69-36.04L2.69-36.04 4.88-35.55Q5.03-33.11 5.22-27.08 5.42-21.04 5.52-19.04L5.52-19.04Q6.35-20.07 8.62-22.83 10.89-25.59 11.74-26.59 12.6-27.59 14.23-29.49 15.87-31.4 17.24-32.81 18.6-34.23 20.17-35.69L20.17-35.69 21.63-33.3Q19.87-30.37 8.01-16.7L8.01-16.7Q9.72-14.89 15.06-8.3 20.41-1.71 22.46 0.34Z" opacity="1" transform="matrix(1,0,0,1,0,0)" fill="#ffa458" class="undefined-text-0" data-fill-palette-color="quaternary" id="text-0"></path></svg></g></svg></g></svg></g></svg></g><g></g></svg></g></svg></g></svg></g><defs></defs></svg><rect width="576" height="360" fill="none" stroke="none" visibility="hidden"></rect></g></svg></g></svg>